<?xml version="1.0" encoding="UTF-8" standalone="no"?>
<svg width="236px" height="103px" viewBox="0 0 236 103" version="1.1" xmlns="http://www.w3.org/2000/svg" xmlns:xlink="http://www.w3.org/1999/xlink">
    <!-- Generator: Sketch 41 (35326) - http://www.bohemiancoding.com/sketch -->
    <title>Graph</title>
    <desc>Created with Sketch.</desc>
    <defs></defs>
    <g id="Everwealth" stroke="none" stroke-width="1" fill="none" fill-rule="evenodd">
        <g id="Artboard" transform="translate(0.000000, -4.000000)">
            <g id="Graph">
                <rect id="Rectangle-path" fill="#793FC6" x="1.01" y="53.32" width="234.2" height="7.26"></rect>
                <path d="M1.4,60.58 L1.4,70.34" id="Shape" stroke="#1C0B10" stroke-width="0.75"></path>
                <path d="M46.4,60.58 L46.4,70.34" id="Shape" stroke="#1C0B10" stroke-width="0.75"></path>
                <path d="M91.42,60.55 L91.42,70.32" id="Shape" stroke="#1C0B10" stroke-width="0.75"></path>
                <path d="M135.68,60.49 L135.68,70.26" id="Shape" stroke="#1C0B10" stroke-width="0.75"></path>
                <path d="M181.28,60.61 L181.28,70.38" id="Shape" stroke="#1C0B10" stroke-width="0.75"></path>
                <rect id="Rectangle-path" fill="#C65C3F" x="0.88" y="89.53" width="234.2" height="7.26"></rect>
                <path d="M1.27,96.79 L1.27,106.55" id="Shape" stroke="#1C0B10" stroke-width="0.75"></path>
                <path d="M46.27,96.79 L46.27,106.55" id="Shape" stroke="#1C0B10" stroke-width="0.75"></path>
                <path d="M91.29,96.76 L91.29,106.53" id="Shape" stroke="#1C0B10" stroke-width="0.75"></path>
                <path d="M135.55,96.7 L135.55,106.47" id="Shape" stroke="#1C0B10" stroke-width="0.75"></path>
                <path d="M181.16,96.82 L181.16,106.59" id="Shape" stroke="#1C0B10" stroke-width="0.75"></path>
                <rect id="Rectangle-path" fill="#8CC63F" x="1.01" y="17.32" width="234.2" height="7.26"></rect>
                <path d="M1.49,24.58 L1.49,34.34" id="Shape" stroke="#1C0B10" stroke-width="0.75"></path>
                <path d="M46.4,24.58 L46.4,34.34" id="Shape" stroke="#1C0B10" stroke-width="0.75"></path>
                <path d="M91.42,24.55 L91.42,34.32" id="Shape" stroke="#1C0B10" stroke-width="0.75"></path>
                <path d="M135.68,24.49 L135.68,34.26" id="Shape" stroke="#1C0B10" stroke-width="0.75"></path>
                <path d="M181.28,24.61 L181.28,34.38" id="Shape" stroke="#1C0B10" stroke-width="0.75"></path>
                <text id="Nest-Egg---66.5%" fill="#000000" font-family="Helvetica" font-size="13" font-weight="normal">
                    <tspan x="0.49" y="13.98">Nest Egg - 66.5%</tspan>
                </text>
                <text id="Venture---8.5%" fill="#000000" font-family="Helvetica" font-size="13" font-weight="normal">
                    <tspan x="0.39" y="86.94">Venture - 8.5%</tspan>
                </text>
                <text id="Mid-Risk---27.7%" fill="#000000" font-family="Helvetica" font-size="13" font-weight="normal">
                    <tspan x="0" y="50.61">Mid-Risk - 27.7%</tspan>
                </text>
            </g>
        </g>
    </g>
</svg>
