<?xml version="1.0" encoding="UTF-8" standalone="no"?>
<svg width="140px" height="140px" viewBox="0 0 140 140" version="1.1" xmlns="http://www.w3.org/2000/svg" xmlns:xlink="http://www.w3.org/1999/xlink">
    <!-- Generator: Sketch 40.2 (33826) - http://www.bohemiancoding.com/sketch -->
    <title>green_icon</title>
    <desc>Created with Sketch.</desc>
    <defs>
        <linearGradient x1="0%" y1="0%" x2="100%" y2="100%" id="linearGradient-1">
            <stop stop-color="#B4ED50" offset="0%"></stop>
            <stop stop-color="#429321" offset="100%"></stop>
        </linearGradient>
    </defs>
    <g id="Everwealth" stroke="none" stroke-width="1" fill="none" fill-rule="evenodd">
        <g id="green_icon">
            <rect id="Green-Rectangle" fill="url(#linearGradient-1)" x="0" y="0" width="140" height="140" rx="12"></rect>
            <g id="growth" transform="translate(29.000000, 32.000000)" fill="#FFFFFF">
                <path d="M76.6425927,20.5002066 L71.5736434,15.6295693 L44.8935421,43.4016484 C44.2301033,44.0933509 43.3125337,44.4850504 42.353791,44.4864345 L42.3491202,44.4864345 C41.3915885,44.4864345 40.4750569,44.0968111 39.8104071,43.4087419 L25.9010273,29.0002922 L6.0873016,49.8581149 C5.3944535,50.5887451 4.46166025,50.9570879 3.528694,50.9570879 C2.65593029,50.9570879 1.78178261,50.6358044 1.09827628,49.9863169 C-0.31458026,48.6440888 -0.372187855,46.4098102 0.971297377,44.9969932 L23.3223522,21.4673444 C23.9847531,20.7697595 24.9045716,20.3720046 25.8667742,20.3685444 L25.8809598,20.3685444 C26.8384915,20.3685444 27.7550231,20.7579946 28.4194999,21.4462369 L42.3430653,35.8699116 L66.4858375,10.7400736 L61.4167151,5.86943631 L81.6973564,0 L76.6425927,20.5002066 L76.6425927,20.5002066 Z M3.528694,55.6628447 C2.7169978,55.6628447 1.92882902,55.5451964 1.17595139,55.3214917 L1.17595139,75.074632 L11.7632932,75.074632 L11.7632932,50.7100266 L9.49289653,53.0981129 C7.95185012,54.7335965 5.7755632,55.6628447 3.528694,55.6628447 L3.528694,55.6628447 Z M14.1160358,75.074632 L24.7033775,75.074632 L24.7033775,37.0861869 L14.1160358,48.2274756 L14.1160358,75.074632 L14.1160358,75.074632 Z M36.4317995,46.6746918 L27.0561202,36.9685386 L27.0561202,75.074632 L37.6434619,75.074632 L37.6434619,47.7096503 C37.2082045,47.4039379 36.8082383,47.062931 36.4317995,46.6746918 L36.4317995,46.6746918 Z M42.3607109,49.1921912 C41.5491877,49.1921912 40.7606729,49.074543 39.9962045,48.8394195 L39.9962045,75.074805 L50.5837193,75.074805 L50.5837193,44.2744946 L48.2897953,46.662927 C46.7485759,48.2629431 44.5842256,49.1921912 42.3607109,49.1921912 L42.3607109,49.1921912 Z M52.9364619,41.8272381 L52.9364619,75.074632 L63.5236307,75.074632 L63.5236307,30.8037706 L52.9364619,41.8272381 L52.9364619,41.8272381 Z M71.711175,22.2860377 L65.8763733,28.3566871 L65.8763733,75.074632 L76.4637151,75.074632 L76.4637151,26.8507896 L71.711175,22.2860377 L71.711175,22.2860377 Z" id="Shape"></path>
            </g>
        </g>
    </g>
</svg>
