<?xml version="1.0" encoding="UTF-8" standalone="no"?>
<svg width="140px" height="140px" viewBox="0 0 140 140" version="1.1" xmlns="http://www.w3.org/2000/svg" xmlns:xlink="http://www.w3.org/1999/xlink">
    <!-- Generator: Sketch 40.2 (33826) - http://www.bohemiancoding.com/sketch -->
    <title>purple_icon</title>
    <desc>Created with Sketch.</desc>
    <defs>
        <linearGradient x1="100%" y1="100%" x2="0%" y2="0%" id="linearGradient-1">
            <stop stop-color="#3023AE" offset="0%"></stop>
            <stop stop-color="#C86DD7" offset="100%"></stop>
        </linearGradient>
    </defs>
    <g id="Everwealth" stroke="none" stroke-width="1" fill="none" fill-rule="evenodd">
        <g id="purple_icon">
            <rect id="Purple-Rectangle" fill="url(#linearGradient-1)" x="0" y="0" width="140" height="140" rx="12"></rect>
            <g id="gears" transform="translate(27.000000, 28.000000)" fill="#FFFFFF">
                <g id="Group">
                    <path d="M5.64115756,31.0505736 C6.09281886,32.5960281 6.71961415,34.0862879 7.51232583,35.4845563 L5.25401929,38.3270887 C4.51661308,39.2562013 4.59957128,40.5808766 5.42915327,41.4179978 L9.31897106,45.3000325 C10.1577706,46.1371537 11.4851018,46.2106548 12.4160772,45.474724 L15.2458735,43.2393344 C16.7022508,44.0765476 18.2508039,44.7295942 19.86388,45.1895509 L20.2878885,48.8232089 C20.4261522,50.0006981 21.4216506,50.8838149 22.6015005,50.8838149 L28.1043944,50.8838149 C29.2842444,50.8838149 30.2797428,50.0006061 30.4180064,48.8232089 L30.8235798,45.3183387 C32.5564845,44.8675812 34.2156484,44.1960444 35.7734191,43.3221266 L38.5110397,45.4839232 C39.442015,46.2198539 40.7693462,46.1370617 41.6081458,45.3091396 L45.4979636,41.427105 C46.3367631,40.5899838 46.4105038,39.2653084 45.6730975,38.3361959 L43.5438371,35.6408496 C44.4287245,34.1137013 45.1200429,32.4855465 45.5809218,30.7837067 L48.8623794,30.4065422 C50.0423215,30.2685552 50.9271168,29.2750487 50.9271168,28.0975595 L50.9271168,22.6056764 C50.9271168,21.4281872 50.0422294,20.4346807 48.8623794,20.2966937 L45.6270096,19.9195292 C45.1844737,18.2360877 44.5209003,16.6262392 43.6729753,15.1175812 L45.6639721,12.6062175 C46.4013783,11.677105 46.3184202,10.3524297 45.4888382,9.51530844 L41.6082379,5.64247294 C40.7694384,4.80535173 39.4421072,4.73175866 38.5111318,5.46768939 L36.0684737,7.39950758 C34.4830504,6.47039502 32.7869239,5.76206169 31.0080236,5.28370671 L30.6393205,2.12840368 C30.5010568,0.950914502 29.5055584,0.067797619 28.3257085,0.067797619 L22.8228146,0.067797619 C21.6429646,0.067797619 20.6474662,0.950914502 20.5092026,2.12840368 L20.1404995,5.28370671 C18.3154191,5.77126082 16.5732969,6.50719156 14.9510032,7.47310065 L12.4161693,5.46768939 C11.485194,4.73175866 10.1578628,4.81455087 9.31906324,5.64247294 L5.42924544,9.52450758 C4.59044587,10.3616288 4.51670525,11.6863041 5.25411147,12.6154167 L7.37415434,15.2923647 C6.52613719,16.819421 5.88090675,18.4476677 5.45689818,20.1403084 L2.06482958,20.5266721 C0.884979636,20.6646591 9.21757764e-05,21.6581656 9.21757764e-05,22.8356548 L9.21757764e-05,28.3275379 C9.21757764e-05,29.5050271 0.884979636,30.4985335 2.06482958,30.6365206 L5.64115756,31.0505736 L5.64115756,31.0505736 Z M25.5787781,16.1939719 C30.5931404,16.1939719 34.6765273,20.2691883 34.6765273,25.2735173 C34.6765273,30.2778463 30.5931404,34.3530628 25.5787781,34.3530628 C20.564508,34.3530628 16.4810289,30.2778463 16.4810289,25.2735173 C16.4810289,20.2691883 20.5644159,16.1939719 25.5787781,16.1939719 L25.5787781,16.1939719 Z" id="Shape"></path>
                    <path d="M79.9808296,32.4028463 L77.0772926,29.9558766 C76.1832797,29.2015476 74.865074,29.2383442 74.017149,30.0386688 L72.4132905,31.5381277 C71.0583987,30.8849892 69.6204566,30.4250325 68.1363344,30.1582576 L67.6848574,27.9504654 C67.454418,26.8097727 66.3943966,26.0186472 65.2327974,26.1106385 L61.444373,26.4326082 C60.2829582,26.5337987 59.370418,27.4813095 59.3335477,28.6495996 L59.2598992,30.8941883 C57.8034298,31.418539 56.4300107,32.1360714 55.1764202,33.0375866 L53.2592562,31.7681061 C52.2820086,31.1241667 50.9824223,31.3081494 50.2266731,32.2004654 L47.7747974,35.1165909 C47.0188639,36.0089069 47.0557342,37.3243831 47.8575713,38.1707035 L49.5352626,39.9552435 C48.954463,41.2615206 48.539672,42.6322835 48.3001072,44.0396591 L45.903537,44.5272132 C44.7605573,44.7571916 43.9678457,45.815092 44.0600214,46.9742749 L44.3826367,50.755119 C44.48403,51.91421 45.4334405,52.8249242 46.6040729,52.8617208 L49.1942122,52.944421 C49.664493,54.177105 50.2819786,55.345487 51.0285102,56.440092 L49.5814427,58.6202868 C48.9362122,59.595395 49.1205638,60.8924729 50.0145766,61.6468019 L52.9181136,64.0937716 C53.8123108,64.8481006 55.1303323,64.8113041 55.9784416,64.0109794 L57.8772626,62.2355465 C59.1216356,62.815092 60.4304394,63.2474513 61.7762058,63.5050271 L62.3016999,66.0991829 C62.5321393,67.2398755 63.5921608,68.0310011 64.7535756,67.9390097 L68.542,67.61704 C69.7034148,67.5158496 70.615955,66.5684307 70.6528253,65.4000487 L70.7357835,62.8609957 C72.1184202,62.3734416 73.427224,61.7111039 74.6347267,60.8924729 L76.727209,62.2723431 C77.7042722,62.9162825 79.0038585,62.7322998 79.7597921,61.8399838 L82.2116677,58.9422565 C82.9674169,58.0499405 82.9305466,56.7344643 82.1287095,55.8881439 L80.4418006,54.1036039 C81.0594705,52.7973268 81.511224,51.4174567 81.7691318,50.0006981 L84.0735263,49.5315422 C85.2165059,49.3015639 86.0092176,48.2436634 85.9170418,47.0844805 L85.5944266,43.3036364 C85.4930332,42.1445455 84.5436227,41.2338312 83.3729904,41.1970346 L81.0593783,41.1234416 C80.5799721,39.780368 79.9347417,38.5109794 79.1329046,37.3333983 L80.3956206,35.4383766 C81.0593783,34.4634524 80.8750268,33.1571753 79.9808296,32.4028463 L79.9808296,32.4028463 Z M65.7029861,54.2598972 C61.6103816,54.6095563 57.9969068,51.5645509 57.6559486,47.4802273 C57.3055884,43.3958117 60.356791,39.7896591 64.4492111,39.4492911 C68.5418156,39.099724 72.1552905,42.1447294 72.4962487,46.229053 C72.8466088,50.3135606 69.7954062,53.9196212 65.7029861,54.2598972 L65.7029861,54.2598972 Z" id="Shape"></path>
                    <path d="M18.8960343,64.4342316 C17.7346195,64.5538203 16.8405145,65.5288366 16.8312969,66.6972186 L16.8036442,69.0245996 C16.785209,70.1928896 17.6516613,71.1863961 18.8130761,71.3336742 L20.5275456,71.5543615 C20.8132905,72.5939556 21.2188639,73.5874621 21.7442658,74.5257738 L20.6381565,75.8872457 C19.9007503,76.797868 19.9560557,78.104237 20.7764202,78.9413582 L22.4079314,80.6064015 C23.2282958,81.4435227 24.5371919,81.5355141 25.4681672,80.8179816 L26.8414941,79.7600812 C27.8093398,80.3304275 28.8325831,80.7812771 29.9017299,81.0939556 L30.0860815,82.8601894 C30.20591,84.0192803 31.1829732,84.9115963 32.3536056,84.9207955 L34.6857449,84.9483929 C35.8562851,84.9667911 36.8518757,84.1020725 36.9993569,82.9429816 L37.2113612,81.2687392 C38.3728682,80.983474 39.4789775,80.5512067 40.5296892,79.9808604 L41.8201501,81.0203626 C42.7326902,81.7562933 44.0416785,81.7010985 44.880478,80.8823755 L46.5488596,79.2541288 C47.3876592,78.4354978 47.4798349,77.1291288 46.7609561,76.2000162 L45.7744909,74.9212446 C46.382851,73.9093398 46.8530397,72.8330411 47.1756549,71.7015476 L48.7057728,71.5451623 C49.8671876,71.4255736 50.7612004,70.4504654 50.7705102,69.2821753 L50.7980707,66.9547024 C50.8165981,65.7865043 49.9501458,64.7929058 48.788731,64.6457197 L47.2953912,64.4525379 C47.0096463,63.3302435 46.5857299,62.2447457 46.0326752,61.2328409 L46.9636506,60.0921483 C47.7010568,59.181434 47.6457513,57.8751569 46.8253869,57.0380357 L45.1939678,55.3729924 C44.3736034,54.5357792 43.064523,54.4437879 42.1336399,55.1614123 L41.0182208,56.0169318 C39.9675091,55.3821916 38.8428725,54.8946374 37.6631147,54.5634686 L37.5155413,53.1192045 C37.3957128,51.9600216 36.4187417,51.0677976 35.2480171,51.0585985 L32.91597,51.0310011 C31.7453376,51.0126028 30.7498392,51.8773214 30.6022658,53.0364123 L30.4179143,54.4715693 C29.2012862,54.7842478 28.0306538,55.2626948 26.9429796,55.8881439 L25.7907824,54.9498323 C24.8782422,54.2139015 23.569254,54.2691883 22.7304544,55.0878193 L21.0528553,56.7253571 C20.2140557,57.5439881 20.12188,58.8503571 20.840851,59.7793777 L21.8271318,61.0489502 C21.255642,62.060855 20.8039807,63.1370617 20.5090182,64.2686472 L18.8960343,64.4342316 L18.8960343,64.4342316 Z M33.9483387,61.8031872 C37.2943194,61.8399838 39.9765423,64.5906169 39.9397642,67.9299026 C39.9028939,71.2691883 37.146746,73.9460444 33.8007653,73.9093398 C30.4547846,73.8725433 27.7725616,71.1220022 27.8093398,67.7826245 C27.8463023,64.4434307 30.602358,61.7664827 33.9483387,61.8031872 L33.9483387,61.8031872 Z" id="Shape"></path>
                </g>
            </g>
        </g>
    </g>
</svg>
