<?xml version="1.0" encoding="UTF-8" standalone="no"?>
<svg width="140px" height="140px" viewBox="0 0 140 140" version="1.1" xmlns="http://www.w3.org/2000/svg" xmlns:xlink="http://www.w3.org/1999/xlink">
    <!-- Generator: Sketch 40.2 (33826) - http://www.bohemiancoding.com/sketch -->
    <title>red_icon</title>
    <desc>Created with Sketch.</desc>
    <defs>
        <linearGradient x1="50%" y1="0%" x2="50%" y2="100%" id="linearGradient-1">
            <stop stop-color="#F5515F" offset="0%"></stop>
            <stop stop-color="#9F041B" offset="100%"></stop>
        </linearGradient>
    </defs>
    <g id="Everwealth" stroke="none" stroke-width="1" fill="none" fill-rule="evenodd">
        <g id="red_icon">
            <rect id="Red-Rectangle" fill="url(#linearGradient-1)" x="0" y="0" width="140" height="140" rx="12"></rect>
            <g id="card" transform="translate(28.000000, 39.000000)" fill="#FFFFFF">
                <g id="Group">
                    <path d="M76.1930123,20.0844344 L32.6374568,20.0844344 C28.4201728,20.0844344 24.9633827,23.5270574 24.9633827,27.7270574 L24.9633827,55.1991885 C24.9633827,59.3991885 28.4201728,62.8418115 32.6374568,62.8418115 L76.1930123,62.8418115 C80.4102963,62.8418115 83.8670864,59.3991885 83.8670864,55.1991885 L83.8670864,27.7270574 C83.8843704,23.5098443 80.4102963,20.0844344 76.1930123,20.0844344 L76.1930123,20.0844344 Z M79.7362222,55.3024672 C79.7362222,56.8172213 78.4917778,58.0737787 76.9535062,58.0737787 L32.551037,58.0737787 C31.0300494,58.0737787 29.768321,56.8344344 29.768321,55.3024672 L29.768321,35.9721393 L79.7362222,35.9721393 L79.7362222,55.3024672 L79.7362222,55.3024672 Z M79.7362222,28.6909918 L29.768321,28.6909918 L29.768321,27.6409918 C29.768321,26.1262377 31.0127654,24.8696803 32.551037,24.8696803 L76.9535062,24.8696803 C78.4744938,24.8696803 79.7362222,26.1090246 79.7362222,27.6409918 L79.7362222,28.6909918 L79.7362222,28.6909918 Z" id="Shape"></path>
                    <path d="M32.0843704,15.368041 L59.0991852,15.368041 L53.6028889,4.28279508 C51.7189383,0.495909836 47.1041235,-1.05327049 43.3016543,0.822959016 L4.27449383,20.0327951 C0.472024691,21.9090246 -1.08353086,26.5049262 0.800419753,30.2918115 L13.0374568,54.9237787 C14.6794321,58.2459098 18.4646173,59.8639426 21.9386914,58.9172213 C20.9016543,57.1786967 20.314,55.1647623 20.314,53.013123 L20.314,27.1073852 C20.296716,20.6524672 25.6028889,15.368041 32.0843704,15.368041 L32.0843704,15.368041 Z" id="Shape"></path>
                    <path d="M37.6325185,55.0959098 C39.1362222,55.0959098 40.5016543,54.4245984 41.4004198,53.3573852 C42.3164691,54.4245984 43.6646173,55.0959098 45.168321,55.0959098 C47.9164691,55.0959098 50.1460988,52.875418 50.1460988,50.1385328 C50.1460988,47.4016475 47.9164691,45.1811557 45.168321,45.1811557 C43.6646173,45.1811557 42.2991852,45.8524672 41.4004198,46.9196803 C40.4843704,45.8524672 39.1362222,45.1811557 37.6325185,45.1811557 C34.8843704,45.1811557 32.6547407,47.4016475 32.6547407,50.1385328 C32.6547407,52.875418 34.8843704,55.0959098 37.6325185,55.0959098 L37.6325185,55.0959098 Z" id="Shape"></path>
                </g>
            </g>
        </g>
    </g>
</svg>
